# xmcd CD database file
# Generated: Fri Jan 31 23:10:44 2003 by WSPse's MP3c
#
# Track frame offsets:
#       150
#       21890
#       34924
#       50208
#       63482
#       88507
#       105378
#       124573
#       138316
#       158442
#       175280
#
# Disc length: 2378 seconds
#
# Revision: 0
# Processed by: cddbd v1.4PL0 Copyright (c) Steve Scherf et al.
# Submitted via: MP3c 0.27
#   WSPse mp3c-0.27 (NLS) - ENGLISH (Jan 20 2003)
#
DISCID=8b09480b
DTITLE=Blues Brothers - Briefcase Full of Blues
DYEAR=1900
DGENRE=
TTITLE0=Opening: I Can't Turn You Loose - Hey Bartender
TTITLE1=Messin' with the Kid
TTITLE2=(I Got Every Thing I Need) Almost
TTITLE3=Rubber Biscuit
TTITLE4=Shot Gun Blues
TTITLE5=Groove Me
TTITLE6=I Don't Know
TTITLE7=Soul Man
TTITLE8="B" Movie Box Car Blues
TTITLE9=Flip, Flop and Fly
TTITLE10=Closing: I Can't Turn You Loose
EXTD=
EXTT0=
EXTT1=
EXTT2=
EXTT3=
EXTT4=
EXTT5=
EXTT6=
EXTT7=
EXTT8=
EXTT9=
EXTT10=
PLAYORDER=
